<?xml version="1.0" encoding="UTF-8" standalone="no"?>
<!-- Created with Inkscape (http://www.inkscape.org/) -->

<svg
   width="600"
   height="600"
   viewBox="0 0 158.75 158.75"
   version="1.1"
   id="svg5"
   inkscape:version="1.2 (dc2aedaf03, 2022-05-15)"
   sodipodi:docname="claimsxray_logo_white.svg"
   xmlns:inkscape="http://www.inkscape.org/namespaces/inkscape"
   xmlns:sodipodi="http://sodipodi.sourceforge.net/DTD/sodipodi-0.dtd"
   xmlns:xlink="http://www.w3.org/1999/xlink"
   xmlns="http://www.w3.org/2000/svg"
   xmlns:svg="http://www.w3.org/2000/svg">
  <sodipodi:namedview
     id="namedview7"
     pagecolor="#505050"
     bordercolor="#ffffff"
     borderopacity="1"
     inkscape:showpageshadow="0"
     inkscape:pageopacity="0"
     inkscape:pagecheckerboard="1"
     inkscape:deskcolor="#505050"
     inkscape:document-units="mm"
     showgrid="false"
     inkscape:zoom="0.4204826"
     inkscape:cx="129.61297"
     inkscape:cy="650.44308"
     inkscape:window-width="1500"
     inkscape:window-height="930"
     inkscape:window-x="1913"
     inkscape:window-y="1073"
     inkscape:window-maximized="1"
     inkscape:current-layer="layer1" />
  <defs
     id="defs2">
    <linearGradient
       inkscape:collect="always"
       id="linearGradient4244">
      <stop
         style="stop-color:#1abc9c;stop-opacity:1;"
         offset="0.06855305"
         id="stop4240" />
      <stop
         style="stop-color:#1abc9c;stop-opacity:0;"
         offset="1"
         id="stop4242" />
    </linearGradient>
    <linearGradient
       inkscape:collect="always"
       xlink:href="#linearGradient4244"
       id="linearGradient4248"
       x1="53.152817"
       y1="188.14197"
       x2="177.54832"
       y2="188.14197"
       gradientUnits="userSpaceOnUse"
       gradientTransform="translate(-226.83732,-155.5917)" />
  </defs>
  <g
     inkscape:label="Layer 1"
     inkscape:groupmode="layer"
     id="layer1">
    <circle
       style="fill:url(#linearGradient4248);fill-opacity:1;fill-rule:evenodd;stroke:#000000;stroke-width:1.065;stroke-dasharray:none;stroke-opacity:0"
       id="path4193"
       cx="-111.48675"
       cy="32.55027"
       r="61.665253"
       transform="matrix(-0.86158885,-0.50760678,-0.50760678,0.86158885,0,0)" />
    <path
       id="path61"
       style="fill:#ffffff;stroke-width:0.264583"
       d="M 79.374885,21.48524 A 62.923725,62.923725 0 0 0 16.451078,84.40905 62.923725,62.923725 0 0 0 79.374885,147.33286 62.923725,62.923725 0 0 0 142.29869,84.40905 62.923725,62.923725 0 0 0 128.73828,45.38766 l -5.73195,5.73195 A 54.900951,54.900951 0 0 1 134.27541,84.40905 54.900951,54.900951 0 0 1 79.374885,139.31112 54.900951,54.900951 0 0 1 24.474361,84.40905 54.900951,54.900951 0 0 1 79.374885,29.50852 54.900951,54.900951 0 0 1 112.65605,40.77244 l 5.7211,-5.7211 A 62.923725,62.923725 0 0 0 79.374885,21.48524 Z m 39.868365,14.29525 -5.71128,5.7118 a 54.900951,54.900951 0 0 1 8.77362,8.73228 l 5.71748,-5.71748 a 62.923725,62.923725 0 0 0 -8.77982,-8.7266 z" />
    <path
       id="rect302-6"
       style="fill:#ffffff;stroke-width:0.119665"
       d="m 153.03087,28.437881 a 4.8347504,4.0086617 45 0 1 0.58392,6.25213 l -3.72862,3.72862 a 4.8347504,4.0086617 45 0 1 -6.25212,-0.58392 l -5.4548,-5.45481 a 4.8347504,4.0086617 45 0 1 -0.64166,-6.18489 4.8347504,4.0086617 45 0 1 -6.18452,-0.64129 l -5.45481,-5.4548 a 4.8347504,4.0086617 45 0 1 -0.58392,-6.25212 l 3.72862,-3.72862 a 4.8347504,4.0086617 45 0 1 6.25212,0.58392 l 5.45481,5.4548 a 4.8347504,4.0086617 45 0 1 1.58039,3.44105 l -7.78392,-2.05359 c -0.14905,-0.0393 -0.30086,0.0486 -0.34019,0.19768 l -0.15896,0.60256 c -0.0393,0.14905 0.049,0.30123 0.19806,0.34056 l 10.97501,2.89585 a 4.8347504,4.0086617 45 0 1 2.35579,1.40207 z" />
    <path
       id="rect791-1-5"
       style="fill:#ffffff;stroke-width:0.316907"
       d="M 129.23127,25.794541 37.666837,117.35897 a 53.253925,53.253925 0 0 0 8.809799,8.80825 l 91.563914,-91.563399 -0.74982,-0.74983 a 5.6500125,4.6846242 45 0 1 -1.27538,-6.51019 l -0.19223,-0.19224 a 5.6500125,4.6846242 45 0 1 -6.50968,-1.27486 z" />
    <path
       id="rect302"
       style="fill:#ffffff;stroke-width:0.119665"
       d="m 5.7191284,28.437881 a 4.0086617,4.8347504 45 0 0 -0.58392,6.25213 l 3.72862,3.72862 a 4.0086617,4.8347504 45 0 0 6.2521196,-0.58392 l 5.4548,-5.45481 a 4.0086617,4.8347504 45 0 0 0.641661,-6.18489 4.0086617,4.8347504 45 0 0 6.184519,-0.64129 l 5.45481,-5.4548 a 4.0086617,4.8347504 45 0 0 0.583921,-6.25212 l -3.728621,-3.72862 a 4.0086617,4.8347504 45 0 0 -6.252119,0.58392 l -5.45481,5.4548 a 4.0086617,4.8347504 45 0 0 -1.580391,3.44105 l 7.783921,-2.05359 c 0.14905,-0.0393 0.30086,0.0486 0.34019,0.19768 l 0.15896,0.60256 c 0.0393,0.14905 -0.049,0.30123 -0.19806,0.34056 l -10.97501,2.89585 a 4.0086617,4.8347504 45 0 0 -2.35579,1.40207 z" />
    <path
       id="rect791-1"
       style="fill:#ffffff;stroke-width:0.293083"
       d="m 28.856523,25.794541 -0.07648,0.076 a 4.3324626,5.225279 45 0 1 -6.020304,1.17926 l -0.177767,0.17777 a 4.3324626,5.225279 45 0 1 -1.179256,6.02082 l -0.693498,0.69349 8.913151,8.91316 a 64.81143,64.81143 0 0 1 8.155575,-8.13904 z m 10.322367,10.32237 a 62.923725,62.923725 0 0 0 -8.151441,8.14317 l 5.459099,5.45858 a 54.900951,54.900951 0 0 1 8.154541,-8.13956 z m 6.61665,6.61665 a 53.253925,53.253925 0 0 0 -8.128703,8.16591 l 98.754693,98.754169 1.50688,-1.50688 c -0.26577,-0.1763 -0.53412,-0.32626 -0.7922,-0.4191 -0.6024,-0.21671 -0.96767,-0.48112 -1.53117,-0.75809 -0.80259,-0.39449 -1.77769,-0.77683 -2.44223,-1.2578 -0.0579,-0.042 -0.0567,-0.0992 -0.10955,-0.14315 -0.0944,-0.0786 -0.27057,-0.12137 -0.36484,-0.19999 -0.10546,-0.0879 -0.12412,-0.19486 -0.21859,-0.28577 -0.35567,-0.34213 -0.61375,-0.68349 -0.85731,-1.05006 -0.0835,-0.12571 -0.44262,-0.3478 -0.23668,-0.37879 0.19306,-0.029 1.01498,0.22765 1.27589,0.28629 0.47658,0.10699 0.96075,0.19479 1.44023,0.29404 0.10824,0.0229 0.38745,0.072 0.32762,0.0145 -0.0238,-0.023 -0.38869,-0.20753 -0.45527,-0.25063 -0.91839,-0.59494 -1.82179,-1.20833 -2.78949,-1.77922 -0.38083,-0.22469 -0.80575,-0.42478 -1.18442,-0.65061 -0.69235,-0.41289 -1.83706,-1.20402 -2.13321,-1.7508 -0.35341,-0.65249 -0.41019,-1.34727 -0.6382,-2.00659 -0.11855,-0.34278 -0.23635,-0.68565 -0.36535,-1.02836 -0.078,-0.20698 -0.32423,-0.40751 -0.36484,-0.61392 -0.004,-0.0207 0.38236,0.0101 0.83871,0.12867 1.74652,0.45511 3.49575,0.90634 5.23121,1.38131 0.0745,0.0204 0.10453,0.0975 0.1819,0.10026 0.0547,0.002 -0.0297,-0.0641 -0.0181,-0.0925 0.0257,-0.064 0.10202,-0.11479 0.12764,-0.1788 0.0704,-0.17467 -0.60473,-0.4334 -0.52917,-0.62115 0.0115,-0.0283 0.11767,0.0187 0.16382,0.007 0.0654,-0.0163 0.0751,-0.0747 0.14573,-0.0853 0.0999,-0.015 0.22875,0.03 0.32866,0.015 0.1762,-0.0264 0.35686,-0.1975 0.61908,-0.15709 0.0775,0.0119 0.10998,0.0774 0.18294,0.10025 0.1834,0.0567 0.47665,0.077 0.67437,0.12144 0.2267,0.0509 0.51395,0.22633 0.71055,0.30799 0.21479,0.0892 0.47393,0.12864 0.69247,0.21446 0.5469,0.21456 0.96713,0.4485 1.4397,0.70796 0.88101,0.48371 1.76272,0.96737 2.64377,1.45108 0.36422,0.19998 0.77507,0.48004 1.18442,0.65009 0.076,0.0312 0.17787,0.0271 0.25529,0.0574 0.10366,0.0407 0.17281,0.10683 0.27336,0.15038 0.27631,0.11953 0.59857,0.19518 0.87489,0.31471 0.10051,0.0435 0.16727,0.11209 0.27336,0.15038 0.05,0.0182 0.11052,-0.005 0.16434,0.007 0.33539,0.0753 0.84072,0.18473 1.30069,0.28732 z" />
  </g>
</svg>
